<?xml version="1.0" standalone="no"?>
<!DOCTYPE svg PUBLIC "-//W3C//DTD SVG 20010904//EN"
 "http://www.w3.org/TR/2001/REC-SVG-20010904/DTD/svg10.dtd">
<svg version="1.0" xmlns="http://www.w3.org/2000/svg"
 width="32.000000pt" height="32.000000pt" viewBox="0 0 32.000000 32.000000"
 preserveAspectRatio="xMidYMid meet">

<g transform="translate(0.000000,32.000000) scale(0.100000,-0.100000)"
fill="#000000" stroke="none">
<path d="M195 253 c32 -8 42 -23 14 -23 -13 0 -35 -7 -47 -16 -16 -11 -34 -14
-61 -9 -31 5 -40 3 -46 -12 -5 -10 -8 -21 -7 -25 1 -3 -5 -9 -14 -12 -9 -4
-12 -2 -8 5 4 7 1 10 -7 7 -14 -5 -15 -47 -1 -58 4 -3 12 -14 18 -25 16 -29
46 -29 78 0 15 14 32 25 39 25 7 0 6 -4 -3 -10 -13 -8 -13 -10 2 -10 9 0 31
20 49 45 18 25 36 45 41 45 11 0 2 -50 -12 -64 -8 -8 -9 -6 -4 8 5 13 4 17 -4
12 -17 -11 -15 -22 12 -50 43 -48 94 -25 81 36 -10 44 -16 53 -26 37 -7 -11
-11 -10 -22 6 -11 14 -12 24 -4 36 14 22 2 50 -18 43 -8 -3 -15 -1 -15 5 0 6
-12 10 -27 10 -21 -1 -23 -2 -8 -6z m65 -35 c0 -16 -3 -19 -11 -11 -6 6 -8 16
-5 22 11 17 16 13 16 -11z m-30 -8 c0 -5 0 -13 0 -17 0 -5 -18 -8 -40 -8 -45
0 -47 2 -22 21 20 16 62 18 62 4z m-85 -51 c11 -17 -1 -21 -15 -4 -8 9 -8 15
-2 15 6 0 14 -5 17 -11z m35 -4 c0 -8 -4 -15 -10 -15 -5 0 -10 7 -10 15 0 8 5
15 10 15 6 0 10 -7 10 -15z m-74 -10 c10 -8 14 -15 7 -15 -6 0 -15 5 -19 11
-3 6 -17 8 -31 4 -16 -4 -22 -2 -18 5 9 14 38 12 61 -5z m-6 -25 c23 -7 22 -8
-10 -8 -19 0 -44 3 -55 8 -17 7 -15 9 10 8 17 0 41 -4 55 -8z m190 -16 c0 -8
-19 -13 -24 -6 -3 5 1 9 9 9 8 0 15 -2 15 -3z"/>
</g>
</svg>
